<svg width="362" height="92" viewBox="0 0 362 92" fill="none" xmlns="http://www.w3.org/2000/svg">
<path d="M84.8947 62.064C85.0496 62.1732 85.19 62.291 85.3292 62.4195C85.363 62.4505 85.363 62.4505 85.3975 62.4821C85.9466 62.9908 86.3648 63.5745 86.7115 64.2362C86.7345 64.28 86.7574 64.3238 86.7811 64.3689C87.0042 64.8202 87.1524 65.2974 87.3039 65.7765C87.3189 65.8237 87.3339 65.8709 87.3493 65.9195C87.3876 66.0428 87.4249 66.1663 87.4619 66.2899C87.5054 66.434 87.5491 66.578 87.5928 66.7219C87.6045 66.7607 87.6163 66.7996 87.6284 66.8395C87.7339 67.1857 87.8434 67.5305 87.9536 67.8751C88.05 68.1769 88.1424 68.4798 88.2341 68.783C88.3741 69.2451 88.5175 69.7059 88.6645 70.1658C88.7609 70.4676 88.8533 70.7705 88.945 71.0737C88.9682 71.1502 88.9914 71.2268 89.0146 71.3033C89.0264 71.3422 89.0382 71.3812 89.0504 71.4213C89.1323 71.6905 89.2172 71.9586 89.3034 72.2265C89.3973 72.5185 89.4844 72.8114 89.5643 73.1075C89.6136 73.289 89.6689 73.4672 89.728 73.6458C89.8664 74.073 89.9569 74.5137 90.0566 74.9511C90.1119 75.1935 90.1688 75.4355 90.2266 75.6773C90.2361 75.7169 90.2456 75.7566 90.2554 75.7974C90.3286 76.1006 90.4067 76.4024 90.4858 76.7041C90.5883 77.0951 90.6821 77.487 90.7702 77.8814C90.9011 78.4668 91.0451 79.0489 91.1967 79.6292C91.3207 80.1034 91.4361 80.579 91.5473 81.0562C91.5941 81.2569 91.641 81.4576 91.688 81.6582C91.6948 81.6876 91.7017 81.717 91.7088 81.7473C91.7926 82.1049 91.8795 82.4613 91.9755 82.8159C92.0458 83.0779 92.1051 83.3419 92.1641 83.6066C92.2252 83.8789 92.2912 84.1498 92.3594 84.4204C92.3693 84.4597 92.3791 84.4991 92.3893 84.5396C92.4377 84.7331 92.4868 84.9263 92.5368 85.1194C92.7614 85.9998 92.7614 85.9999 92.6329 86.2914C92.2659 86.8867 91.5231 87.3757 90.8586 87.5775C90.6441 87.6223 90.4309 87.6282 90.2127 87.6353C90.1706 87.6368 90.1285 87.6383 90.085 87.6398C89.9397 87.6448 89.7944 87.6494 89.649 87.654C89.6228 87.6548 89.5967 87.6557 89.5697 87.6565C87.8364 87.7116 86.1023 87.7378 84.3684 87.7671C84.0734 87.7721 83.7784 87.7771 83.4835 87.7822C83.4285 87.7831 83.4285 87.7831 83.3723 87.7841C83.3165 87.785 83.3165 87.785 83.2595 87.786C82.3352 87.8019 81.4109 87.8175 80.4866 87.833C80.2035 87.8377 79.9204 87.8425 79.6372 87.8473C79.2875 87.8532 78.9377 87.8591 78.588 87.8648C78.4072 87.8678 78.2265 87.8708 78.0457 87.8739C77.9772 87.8751 77.9088 87.8762 77.8403 87.8774C77.8071 87.8779 77.7738 87.8785 77.7396 87.8791C77.4874 87.8833 77.2351 87.8865 76.9829 87.8895C76.8088 87.8917 76.6348 87.8955 76.4607 87.9008C76.3786 87.9031 76.2965 87.9049 76.2144 87.9066C76.1158 87.9086 76.0173 87.9114 75.9188 87.9154C75.3141 87.9243 74.8932 87.5608 74.4749 87.1633C73.9193 86.6219 73.2706 85.7773 73.2188 84.9807C73.2355 84.7053 73.3294 84.4392 73.4076 84.1763C73.4734 83.9515 73.5345 83.7255 73.5964 83.4997C73.6238 83.4003 73.6512 83.3009 73.6787 83.2015C73.7462 82.9562 73.8134 82.7108 73.8803 82.4654C73.8898 82.4306 73.8993 82.3958 73.9091 82.3599C73.9567 82.185 74.0042 82.01 74.0514 81.8349C74.1539 81.4554 74.2601 81.0774 74.3715 80.7005C74.4576 80.4089 74.5386 80.117 74.611 79.8217C74.7305 79.3348 74.8556 78.8523 75.0224 78.3791C75.0343 78.3455 75.0461 78.3118 75.0583 78.2772C75.2058 77.8605 75.3619 77.4469 75.5179 77.0333C75.5728 76.8876 75.6275 76.7419 75.6822 76.5962C75.8333 76.1936 75.9845 75.7912 76.137 75.3892C76.535 74.339 76.8989 73.2788 77.2569 72.2143C77.3937 71.8083 77.5346 71.4038 77.6768 70.9997C77.9261 70.2906 78.1671 69.5788 78.4073 68.8666C80.5917 62.3907 80.5917 62.3907 81.972 61.6691C82.9486 61.2142 84.0341 61.4899 84.8947 62.064Z" fill="#D4D827"/>
<path d="M89.2627 46.5715C89.4384 46.5902 89.6148 46.5988 89.7913 46.6086C89.8758 46.6135 89.9603 46.6184 90.0448 46.6233C90.1755 46.6308 90.3063 46.6383 90.437 46.6457C90.9399 46.6743 91.4419 46.7077 91.9438 46.7511C92.2985 46.7815 92.6533 46.8027 93.0088 46.8211C93.6524 46.8547 93.6524 46.8547 93.8383 46.8777C94.1271 46.9132 94.4192 46.9217 94.7096 46.9371C95.393 46.9732 95.393 46.9732 95.6608 47.0064C95.8796 47.0286 96.0999 47.0367 96.3195 47.0483C96.7875 47.073 97.2543 47.1023 97.7211 47.1443C98.1449 47.1813 98.5696 47.2031 98.9943 47.2255C99.4673 47.2507 99.4673 47.2507 99.6442 47.2726C99.933 47.3082 100.225 47.3166 100.515 47.332C101.198 47.3681 101.198 47.3681 101.464 47.4011C101.726 47.4275 101.99 47.4366 102.253 47.4505C102.935 47.4866 102.935 47.4866 103.202 47.5196C103.464 47.546 103.728 47.5551 103.991 47.569C104.113 47.5754 104.235 47.582 104.358 47.5887C104.399 47.5908 104.399 47.5908 104.44 47.593C104.578 47.6005 104.715 47.6115 104.853 47.6276C105.061 47.6517 105.269 47.6649 105.478 47.6777C105.519 47.6803 105.56 47.6829 105.602 47.6855C105.731 47.6937 105.859 47.7017 105.988 47.7097C106.076 47.7152 106.164 47.7207 106.252 47.7263C106.466 47.7397 106.68 47.7531 106.894 47.7664C106.859 47.9198 106.808 48.0676 106.758 48.2163C106.743 48.2603 106.743 48.2603 106.728 48.3051C106.695 48.4025 106.662 48.4999 106.63 48.5972C106.606 48.6659 106.583 48.7345 106.56 48.8032C106.498 48.9866 106.436 49.17 106.375 49.3534C106.336 49.4671 106.298 49.5808 106.259 49.6945C105.96 50.5808 105.66 51.4667 105.35 52.349C105.328 52.4115 105.306 52.474 105.284 52.5365C105.273 52.5664 105.263 52.5963 105.252 52.627C105.173 52.8527 105.095 53.0791 105.019 53.3057C104.739 54.1357 104.443 54.9579 104.133 55.777C103.984 56.1705 103.838 56.5652 103.692 56.9599C103.608 57.1864 103.524 57.4129 103.44 57.6395C103.423 57.6867 103.405 57.7339 103.387 57.7825C103.164 58.3852 102.941 58.9877 102.717 59.5901C102.707 59.6191 102.696 59.6481 102.685 59.678C102.346 60.5903 102.005 61.5018 101.663 62.4128C101.392 63.1338 101.123 63.8557 100.86 64.5795C100.669 65.1027 100.476 65.6247 100.281 66.1464C100.254 66.2179 100.228 66.2893 100.201 66.3608C100.18 66.4159 100.18 66.4159 100.16 66.4721C100.046 66.778 99.9321 67.0841 99.8188 67.3903C99.7882 67.4731 99.7575 67.556 99.7268 67.6388C99.7167 67.6662 99.7065 67.6936 99.6961 67.7219C99.6755 67.7773 99.655 67.8328 99.6345 67.8882C99.5841 68.0244 99.5337 68.1606 99.4833 68.2969C99.3751 68.5898 99.2664 68.8825 99.1568 69.175C99.1311 69.2437 99.1054 69.3124 99.08 69.3812C98.9005 69.8671 98.6673 70.329 98.4371 70.7925C98.3676 70.933 98.2991 71.0741 98.2307 71.2151C98.1861 71.3053 98.1414 71.3954 98.0966 71.4855C98.0766 71.5273 98.0565 71.5692 98.0358 71.6123C97.8817 71.9178 97.7161 72.0978 97.3987 72.2303C97.3568 72.2419 97.315 72.2535 97.2719 72.2654C97.2298 72.2774 97.1877 72.2895 97.1444 72.3019C96.8374 72.3762 96.5422 72.3801 96.2277 72.3814C96.1784 72.3822 96.1292 72.383 96.0784 72.3838C95.6486 72.3856 95.2022 72.3595 94.8453 72.0942C94.6899 71.9354 94.61 71.7384 94.522 71.5372C94.4888 71.465 94.4556 71.3928 94.4224 71.3206C94.3883 71.246 94.3547 71.1712 94.3212 71.0963C94.2402 70.9153 94.1563 70.7357 94.0725 70.556C94.0091 70.4198 93.946 70.2834 93.8829 70.147C93.737 69.832 93.5883 69.5182 93.4395 69.2045C93.3936 69.1078 93.3478 69.011 93.3019 68.9143C93.1264 68.5439 93.1264 68.5439 92.9503 68.1737C92.4852 67.1981 92.0444 66.2123 91.6091 65.223C91.5937 65.188 91.5783 65.153 91.5625 65.1169C91.4293 64.8142 91.2963 64.5113 91.1635 64.2084C90.9517 63.7251 90.7389 63.2422 90.5255 62.7595C90.5099 62.7244 90.4944 62.6892 90.4784 62.653C90.3997 62.475 90.321 62.297 90.2422 62.119C90.1481 61.9062 90.0541 61.6934 89.96 61.4806C89.9368 61.428 89.9368 61.428 89.9131 61.3744C89.8353 61.1982 89.7575 61.022 89.6798 60.8458C89.5359 60.5197 89.3916 60.1937 89.2455 59.8685C88.5185 58.2494 88.5185 58.2494 88.2722 57.3974C88.1144 56.8535 87.9394 56.3149 87.7667 55.7756C87.7189 55.6261 87.6711 55.4765 87.6233 55.3269C87.6136 55.2966 87.6039 55.2662 87.5939 55.235C87.5742 55.1732 87.5544 55.1114 87.5347 55.0496C87.5047 54.9557 87.4747 54.8619 87.4447 54.7681C87.3172 54.3693 87.1902 53.9703 87.0636 53.5712C87.0356 53.4832 87.0076 53.3951 86.9797 53.307C86.83 52.8357 86.83 52.8357 86.7669 52.6364C86.5809 52.0491 86.3924 51.4628 86.1955 50.8791C86.1011 50.5985 86.0148 50.3168 85.9332 50.0323C85.8718 49.8212 85.804 49.6122 85.7366 49.403C85.6158 49.0278 85.4962 48.6522 85.3782 48.2761C85.3605 48.2197 85.3428 48.1634 85.3251 48.1071C85.3001 48.0279 85.2753 47.9487 85.2505 47.8695C85.229 47.8011 85.229 47.8011 85.2071 47.7312C85.1761 47.6247 85.1514 47.5201 85.1318 47.411C85.6968 47.1385 86.271 46.9218 86.8703 46.7367C86.9668 46.7067 87.0624 46.6751 87.1582 46.6427C87.8037 46.4521 88.5986 46.493 89.2627 46.5715Z" fill="#D4D827"/>
<path d="M83.0037 47.5312C83.0558 47.5819 83.107 47.6337 83.1568 47.6867C83.1891 47.7189 83.1891 47.7189 83.222 47.7517C83.436 48.0142 83.3823 48.3961 83.3542 48.7136C83.3295 48.9033 83.288 49.0825 83.2358 49.2665C83.2222 49.3166 83.2086 49.3668 83.1946 49.4184C82.92 50.3603 82.3987 51.2293 81.8916 52.0609C81.676 52.4164 81.4674 52.7761 81.261 53.1369C81.2449 53.165 81.2288 53.1931 81.2122 53.222C80.9644 53.6595 80.7619 54.1183 80.5559 54.5763C80.3592 55.0131 80.1561 55.4467 79.9502 55.8793C79.6954 56.4151 79.444 56.9522 79.1964 57.4912C79.0509 57.8075 78.9043 58.1232 78.7579 58.4391C78.7417 58.4742 78.7254 58.5092 78.7087 58.5454C78.5272 58.9371 78.3454 59.3286 78.1624 59.7195C78.107 59.8381 78.0518 59.9569 77.9967 60.0756C77.9023 60.279 77.8066 60.4815 77.7084 60.683C77.2254 61.6759 76.8596 62.6989 76.5037 63.7432C76.4001 64.0467 76.2946 64.3496 76.1887 64.6524C76.1797 64.6782 76.1706 64.704 76.1613 64.7306C76.1063 64.888 76.0512 65.0453 75.9961 65.2027C75.9229 65.4119 75.8497 65.6212 75.7766 65.8305C75.7584 65.8824 75.7402 65.9344 75.7221 65.9863C75.6066 66.3166 75.492 66.6471 75.3783 66.978C75.3121 67.1702 75.2455 67.3624 75.1788 67.5545C75.1481 67.6432 75.1177 67.7319 75.0874 67.8207C74.7465 68.8208 74.3289 69.7456 73.6383 70.554C73.6093 70.5888 73.5802 70.6236 73.5503 70.6594C72.9501 71.3525 72.0718 71.934 71.15 72.0548C70.0979 72.1212 70.0979 72.1212 69.7282 71.9363C69.7006 71.867 69.7006 71.867 69.6756 71.776C69.6662 71.7424 69.6568 71.7088 69.6471 71.6742C69.6372 71.6377 69.6273 71.6012 69.6171 71.5636C69.6066 71.526 69.5962 71.4883 69.5854 71.4496C69.5537 71.3354 69.5224 71.2212 69.4912 71.1069C69.4669 71.0188 69.4425 70.9307 69.4181 70.8426C69.4025 70.7863 69.387 70.7299 69.3715 70.6736C69.3015 70.4206 69.2272 70.1689 69.153 69.9172C69.0609 69.604 68.9766 69.2909 68.8999 68.9736C68.8448 68.7532 68.7761 68.5367 68.7096 68.3195C68.633 68.0671 68.5683 67.8138 68.5063 67.5574C68.4593 67.3695 68.4025 67.1847 68.3458 66.9995C68.2582 66.7131 68.1818 66.4267 68.1113 66.1356C68.0644 65.9477 68.0076 65.7629 67.9509 65.5777C67.8632 65.2913 67.7868 65.0049 67.7164 64.7138C67.6694 64.5259 67.6126 64.3411 67.5559 64.1559C67.4683 63.8695 67.3919 63.5831 67.3214 63.292C67.2744 63.1041 67.2176 62.9193 67.161 62.7341C67.0733 62.4477 66.9969 62.1613 66.9265 61.8702C66.8709 61.648 66.802 61.4298 66.7349 61.2108C66.6726 61.0056 66.6165 60.8 66.5661 60.5915C66.4057 59.9342 66.169 59.3032 65.9366 58.6686C65.9017 58.5729 65.8667 58.4772 65.8318 58.3814C65.4975 57.4658 65.1602 56.5513 64.8227 55.6369C64.6513 55.1723 64.4805 54.7076 64.3099 54.2428C64.2955 54.2038 64.2812 54.1648 64.2664 54.1245C64.2089 53.9679 64.1514 53.8112 64.0939 53.6545C63.9862 53.3613 63.8784 53.0681 63.7707 52.7749C63.723 52.6452 63.6753 52.5155 63.6276 52.3858C63.5977 52.3043 63.5678 52.2229 63.5378 52.1414C63.442 51.8809 63.3464 51.6203 63.2509 51.3597C63.2365 51.3203 63.222 51.2809 63.2072 51.2403C63.1638 51.1217 63.1204 51.0031 63.0772 50.8845C63.0575 50.8307 63.0575 50.8307 63.0374 50.7758C62.7653 50.0289 62.7036 49.293 63.0441 48.5562C63.367 47.9035 63.8567 47.359 64.5591 47.1128C64.7451 47.0522 64.9226 47.0273 65.1171 47.0125C65.1723 47.008 65.1723 47.008 65.2285 47.0033C65.8103 46.9578 66.3938 46.9337 66.9766 46.9064C67.1571 46.8979 67.3375 46.8892 67.518 46.8804C67.8282 46.8655 68.1385 46.8507 68.4488 46.8359C69.1866 46.8009 69.9244 46.7653 70.6621 46.7298C70.8304 46.7217 70.9987 46.7136 71.167 46.7055C72.3387 46.6493 73.5103 46.5916 74.6819 46.5324C74.7933 46.5267 74.9048 46.5211 75.0163 46.5155C75.683 46.4818 76.3496 46.4481 77.0162 46.414C77.274 46.4008 77.5318 46.3877 77.7896 46.3747C77.9371 46.3672 78.0845 46.3597 78.232 46.3521C79.9122 46.265 81.648 46.3933 83.0037 47.5312Z" fill="#D4D827"/>
<path d="M152.895 37.064C153.05 37.1732 153.19 37.291 153.329 37.4195C153.363 37.4505 153.363 37.4505 153.397 37.4821C153.947 37.9908 154.365 38.5745 154.712 39.2362C154.734 39.28 154.757 39.3238 154.781 39.3689C155.004 39.8202 155.152 40.2974 155.304 40.7765C155.319 40.8237 155.334 40.8709 155.349 40.9195C155.388 41.0428 155.425 41.1663 155.462 41.2899C155.505 41.434 155.549 41.578 155.593 41.7219C155.605 41.7607 155.616 41.7996 155.628 41.8395C155.734 42.1857 155.843 42.5305 155.954 42.8751C156.05 43.1769 156.142 43.4798 156.234 43.783C156.374 44.2451 156.518 44.7059 156.665 45.1658C156.761 45.4676 156.853 45.7705 156.945 46.0737C156.968 46.1502 156.991 46.2268 157.015 46.3033C157.026 46.3422 157.038 46.3812 157.05 46.4213C157.132 46.6905 157.217 46.9586 157.303 47.2265C157.397 47.5185 157.484 47.8114 157.564 48.1075C157.614 48.289 157.669 48.4672 157.728 48.6458C157.866 49.073 157.957 49.5137 158.057 49.9511C158.112 50.1935 158.169 50.4355 158.227 50.6773C158.236 50.7169 158.246 50.7566 158.255 50.7974C158.329 51.1006 158.407 51.4024 158.486 51.7041C158.588 52.0951 158.682 52.487 158.77 52.8814C158.901 53.4668 159.045 54.0489 159.197 54.6292C159.321 55.1034 159.436 55.579 159.547 56.0562C159.594 56.2569 159.641 56.4576 159.688 56.6582C159.695 56.6876 159.702 56.717 159.709 56.7473C159.793 57.1049 159.879 57.4613 159.975 57.8159C160.046 58.0779 160.105 58.3419 160.164 58.6066C160.225 58.8789 160.291 59.1498 160.359 59.4204C160.369 59.4597 160.379 59.4991 160.389 59.5396C160.438 59.7331 160.487 59.9263 160.537 60.1194C160.761 60.9998 160.761 60.9999 160.633 61.2914C160.266 61.8867 159.523 62.3757 158.859 62.5775C158.644 62.6223 158.431 62.6282 158.213 62.6353C158.171 62.6368 158.128 62.6383 158.085 62.6398C157.94 62.6448 157.794 62.6494 157.649 62.654C157.623 62.6548 157.597 62.6557 157.57 62.6565C155.836 62.7116 154.102 62.7378 152.368 62.7671C152.073 62.7721 151.778 62.7771 151.483 62.7822C151.428 62.7831 151.428 62.7831 151.372 62.7841C151.316 62.785 151.316 62.785 151.26 62.786C150.335 62.8019 149.411 62.8175 148.487 62.833C148.203 62.8377 147.92 62.8425 147.637 62.8473C147.287 62.8532 146.938 62.8591 146.588 62.8648C146.407 62.8678 146.226 62.8708 146.046 62.8739C145.977 62.8751 145.909 62.8762 145.84 62.8774C145.807 62.8779 145.774 62.8785 145.74 62.8791C145.487 62.8833 145.235 62.8865 144.983 62.8895C144.809 62.8917 144.635 62.8955 144.461 62.9008C144.379 62.9031 144.296 62.9049 144.214 62.9066C144.116 62.9086 144.017 62.9114 143.919 62.9154C143.314 62.9243 142.893 62.5608 142.475 62.1633C141.919 61.6219 141.271 60.7773 141.219 59.9807C141.236 59.7053 141.329 59.4392 141.408 59.1763C141.473 58.9515 141.534 58.7255 141.596 58.4997C141.624 58.4003 141.651 58.3009 141.679 58.2015C141.746 57.9562 141.813 57.7108 141.88 57.4654C141.89 57.4306 141.899 57.3958 141.909 57.3599C141.957 57.185 142.004 57.01 142.051 56.8349C142.154 56.4554 142.26 56.0774 142.372 55.7005C142.458 55.4089 142.539 55.117 142.611 54.8217C142.731 54.3348 142.856 53.8523 143.022 53.3791C143.034 53.3455 143.046 53.3118 143.058 53.2772C143.206 52.8605 143.362 52.4469 143.518 52.0333C143.573 51.8876 143.628 51.7419 143.682 51.5962C143.833 51.1936 143.984 50.7912 144.137 50.3892C144.535 49.339 144.899 48.2788 145.257 47.2143C145.394 46.8083 145.535 46.4038 145.677 45.9997C145.926 45.2906 146.167 44.5788 146.407 43.8666C148.592 37.3907 148.592 37.3907 149.972 36.6691C150.949 36.2142 152.034 36.4899 152.895 37.064Z" fill="#D4D827"/>
<path d="M157.263 21.5715C157.438 21.5902 157.615 21.5988 157.791 21.6086C157.876 21.6135 157.96 21.6184 158.045 21.6233C158.176 21.6308 158.306 21.6383 158.437 21.6457C158.94 21.6743 159.442 21.7077 159.944 21.7511C160.298 21.7815 160.653 21.8027 161.009 21.8211C161.652 21.8547 161.652 21.8547 161.838 21.8777C162.127 21.9132 162.419 21.9217 162.71 21.9371C163.393 21.9732 163.393 21.9732 163.661 22.0064C163.88 22.0286 164.1 22.0367 164.319 22.0483C164.787 22.073 165.254 22.1023 165.721 22.1443C166.145 22.1813 166.57 22.2031 166.994 22.2255C167.467 22.2507 167.467 22.2507 167.644 22.2726C167.933 22.3082 168.225 22.3166 168.515 22.332C169.198 22.3681 169.198 22.3681 169.464 22.4011C169.726 22.4275 169.99 22.4366 170.253 22.4505C170.935 22.4866 170.935 22.4866 171.202 22.5196C171.464 22.546 171.728 22.5551 171.991 22.569C172.113 22.5754 172.235 22.582 172.358 22.5887C172.399 22.5908 172.399 22.5908 172.44 22.593C172.578 22.6005 172.715 22.6115 172.853 22.6276C173.061 22.6517 173.269 22.6649 173.478 22.6777C173.519 22.6803 173.56 22.6829 173.602 22.6855C173.731 22.6937 173.859 22.7017 173.988 22.7097C174.076 22.7152 174.164 22.7207 174.252 22.7263C174.466 22.7397 174.68 22.7531 174.894 22.7664C174.859 22.9198 174.808 23.0676 174.758 23.2163C174.743 23.2603 174.743 23.2603 174.728 23.3051C174.695 23.4025 174.662 23.4999 174.63 23.5972C174.606 23.6659 174.583 23.7345 174.56 23.8032C174.498 23.9866 174.436 24.17 174.375 24.3534C174.336 24.4671 174.298 24.5808 174.259 24.6945C173.96 25.5808 173.66 26.4667 173.35 27.349C173.328 27.4115 173.306 27.474 173.284 27.5365C173.273 27.5664 173.263 27.5963 173.252 27.627C173.173 27.8527 173.095 28.0791 173.019 28.3057C172.739 29.1357 172.443 29.9579 172.133 30.777C171.984 31.1705 171.838 31.5652 171.692 31.9599C171.608 32.1864 171.524 32.4129 171.44 32.6395C171.423 32.6867 171.405 32.7339 171.387 32.7825C171.164 33.3852 170.941 33.9877 170.717 34.5901C170.707 34.6191 170.696 34.6481 170.685 34.678C170.346 35.5903 170.005 36.5018 169.663 37.4128C169.392 38.1338 169.123 38.8557 168.86 39.5795C168.669 40.1027 168.476 40.6247 168.281 41.1464C168.254 41.2179 168.228 41.2893 168.201 41.3608C168.18 41.4159 168.18 41.4159 168.16 41.4721C168.046 41.778 167.932 42.0841 167.819 42.3903C167.788 42.4731 167.757 42.556 167.727 42.6388C167.717 42.6662 167.707 42.6936 167.696 42.7219C167.676 42.7773 167.655 42.8328 167.634 42.8882C167.584 43.0244 167.534 43.1606 167.483 43.2969C167.375 43.5898 167.266 43.8825 167.157 44.175C167.131 44.2437 167.105 44.3124 167.08 44.3812C166.901 44.8671 166.667 45.329 166.437 45.7925C166.368 45.933 166.299 46.0741 166.231 46.2151C166.186 46.3053 166.141 46.3954 166.097 46.4855C166.077 46.5273 166.056 46.5692 166.036 46.6123C165.882 46.9178 165.716 47.0978 165.399 47.2303C165.357 47.2419 165.315 47.2535 165.272 47.2654C165.23 47.2774 165.188 47.2895 165.144 47.3019C164.837 47.3762 164.542 47.3801 164.228 47.3814C164.178 47.3822 164.129 47.383 164.078 47.3838C163.649 47.3856 163.202 47.3595 162.845 47.0942C162.69 46.9354 162.61 46.7384 162.522 46.5372C162.489 46.465 162.456 46.3928 162.422 46.3206C162.388 46.246 162.355 46.1712 162.321 46.0963C162.24 45.9153 162.156 45.7357 162.073 45.556C162.009 45.4198 161.946 45.2834 161.883 45.147C161.737 44.832 161.588 44.5182 161.44 44.2045C161.394 44.1078 161.348 44.011 161.302 43.9143C161.126 43.5439 161.126 43.5439 160.95 43.1737C160.485 42.1981 160.044 41.2123 159.609 40.223C159.594 40.188 159.578 40.153 159.562 40.1169C159.429 39.8142 159.296 39.5113 159.164 39.2084C158.952 38.7251 158.739 38.2422 158.525 37.7595C158.51 37.7244 158.494 37.6892 158.478 37.653C158.4 37.475 158.321 37.297 158.242 37.119C158.148 36.9062 158.054 36.6934 157.96 36.4806C157.937 36.428 157.937 36.428 157.913 36.3744C157.835 36.1982 157.757 36.022 157.68 35.8458C157.536 35.5197 157.392 35.1937 157.246 34.8685C156.519 33.2494 156.519 33.2494 156.272 32.3974C156.114 31.8535 155.939 31.3149 155.767 30.7756C155.719 30.6261 155.671 30.4765 155.623 30.3269C155.614 30.2966 155.604 30.2662 155.594 30.235C155.574 30.1732 155.554 30.1114 155.535 30.0496C155.505 29.9557 155.475 29.8619 155.445 29.7681C155.317 29.3693 155.19 28.9703 155.064 28.5712C155.036 28.4832 155.008 28.3951 154.98 28.307C154.83 27.8357 154.83 27.8357 154.767 27.6364C154.581 27.0491 154.392 26.4628 154.196 25.8791C154.101 25.5985 154.015 25.3168 153.933 25.0323C153.872 24.8212 153.804 24.6122 153.737 24.403C153.616 24.0278 153.496 23.6522 153.378 23.2761C153.361 23.2197 153.343 23.1634 153.325 23.1071C153.3 23.0279 153.275 22.9487 153.25 22.8695C153.229 22.8011 153.229 22.8011 153.207 22.7312C153.176 22.6247 153.151 22.5201 153.132 22.411C153.697 22.1385 154.271 21.9218 154.87 21.7367C154.967 21.7067 155.062 21.6751 155.158 21.6427C155.804 21.4521 156.599 21.493 157.263 21.5715Z" fill="#D4D827"/>
<path d="M151.004 22.5312C151.056 22.5819 151.107 22.6337 151.157 22.6867C151.189 22.7189 151.189 22.7189 151.222 22.7517C151.436 23.0142 151.382 23.3961 151.354 23.7136C151.329 23.9033 151.288 24.0825 151.236 24.2665C151.222 24.3166 151.209 24.3668 151.195 24.4184C150.92 25.3603 150.399 26.2293 149.892 27.0609C149.676 27.4164 149.467 27.7761 149.261 28.1369C149.245 28.165 149.229 28.1931 149.212 28.222C148.964 28.6595 148.762 29.1183 148.556 29.5763C148.359 30.0131 148.156 30.4467 147.95 30.8793C147.695 31.4151 147.444 31.9522 147.196 32.4912C147.051 32.8075 146.904 33.1232 146.758 33.4391C146.742 33.4742 146.725 33.5092 146.709 33.5454C146.527 33.9371 146.345 34.3286 146.162 34.7195C146.107 34.8381 146.052 34.9569 145.997 35.0756C145.902 35.279 145.807 35.4815 145.708 35.683C145.225 36.6759 144.86 37.6989 144.504 38.7432C144.4 39.0467 144.295 39.3496 144.189 39.6524C144.18 39.6782 144.171 39.704 144.161 39.7306C144.106 39.888 144.051 40.0453 143.996 40.2027C143.923 40.4119 143.85 40.6212 143.777 40.8305C143.758 40.8824 143.74 40.9344 143.722 40.9863C143.607 41.3166 143.492 41.6471 143.378 41.978C143.312 42.1702 143.245 42.3624 143.179 42.5545C143.148 42.6432 143.118 42.7319 143.087 42.8207C142.747 43.8208 142.329 44.7456 141.638 45.554C141.609 45.5888 141.58 45.6236 141.55 45.6594C140.95 46.3525 140.072 46.934 139.15 47.0548C138.098 47.1212 138.098 47.1212 137.728 46.9363C137.701 46.867 137.701 46.867 137.676 46.776C137.666 46.7424 137.657 46.7088 137.647 46.6742C137.637 46.6377 137.627 46.6012 137.617 46.5636C137.607 46.526 137.596 46.4883 137.585 46.4496C137.554 46.3354 137.522 46.2212 137.491 46.1069C137.467 46.0188 137.443 45.9307 137.418 45.8426C137.403 45.7863 137.387 45.7299 137.371 45.6736C137.301 45.4206 137.227 45.1689 137.153 44.9172C137.061 44.604 136.977 44.2909 136.9 43.9736C136.845 43.7532 136.776 43.5367 136.71 43.3195C136.633 43.0671 136.568 42.8138 136.506 42.5574C136.459 42.3695 136.403 42.1847 136.346 41.9995C136.258 41.7131 136.182 41.4267 136.111 41.1356C136.064 40.9477 136.008 40.7629 135.951 40.5777C135.863 40.2913 135.787 40.0049 135.716 39.7138C135.669 39.5259 135.613 39.3411 135.556 39.1559C135.468 38.8695 135.392 38.5831 135.321 38.292C135.274 38.1041 135.218 37.9193 135.161 37.7341C135.073 37.4477 134.997 37.1613 134.926 36.8702C134.871 36.648 134.802 36.4298 134.735 36.2108C134.673 36.0056 134.617 35.8 134.566 35.5915C134.406 34.9342 134.169 34.3032 133.937 33.6686C133.902 33.5729 133.867 33.4772 133.832 33.3814C133.497 32.4658 133.16 31.5513 132.823 30.6369C132.651 30.1723 132.481 29.7076 132.31 29.2428C132.296 29.2038 132.281 29.1648 132.266 29.1245C132.209 28.9679 132.151 28.8112 132.094 28.6545C131.986 28.3613 131.878 28.0681 131.771 27.7749C131.723 27.6452 131.675 27.5155 131.628 27.3858C131.598 27.3043 131.568 27.2229 131.538 27.1414C131.442 26.8809 131.346 26.6203 131.251 26.3597C131.236 26.3203 131.222 26.2809 131.207 26.2403C131.164 26.1217 131.12 26.0031 131.077 25.8845C131.057 25.8307 131.057 25.8307 131.037 25.7758C130.765 25.0289 130.704 24.293 131.044 23.5562C131.367 22.9035 131.857 22.359 132.559 22.1128C132.745 22.0522 132.923 22.0273 133.117 22.0125C133.172 22.008 133.172 22.008 133.229 22.0033C133.81 21.9578 134.394 21.9337 134.977 21.9064C135.157 21.8979 135.338 21.8892 135.518 21.8804C135.828 21.8655 136.138 21.8507 136.449 21.8359C137.187 21.8009 137.924 21.7653 138.662 21.7298C138.83 21.7217 138.999 21.7136 139.167 21.7055C140.339 21.6493 141.51 21.5916 142.682 21.5324C142.793 21.5267 142.905 21.5211 143.016 21.5155C143.683 21.4818 144.35 21.4481 145.016 21.414C145.274 21.4008 145.532 21.3877 145.79 21.3747C145.937 21.3672 146.085 21.3597 146.232 21.3521C147.912 21.265 149.648 21.3933 151.004 22.5312Z" fill="#D4D827"/>
<path d="M211.895 20.064C212.05 20.1732 212.19 20.291 212.329 20.4195C212.363 20.4505 212.363 20.4505 212.397 20.4821C212.947 20.9908 213.365 21.5745 213.712 22.2362C213.734 22.28 213.757 22.3238 213.781 22.3689C214.004 22.8202 214.152 23.2974 214.304 23.7765C214.319 23.8237 214.334 23.8709 214.349 23.9195C214.388 24.0428 214.425 24.1663 214.462 24.2899C214.505 24.434 214.549 24.578 214.593 24.7219C214.605 24.7607 214.616 24.7996 214.628 24.8395C214.734 25.1857 214.843 25.5305 214.954 25.8751C215.05 26.1769 215.142 26.4798 215.234 26.783C215.374 27.2451 215.518 27.7059 215.665 28.1658C215.761 28.4676 215.853 28.7705 215.945 29.0737C215.968 29.1502 215.991 29.2268 216.015 29.3033C216.026 29.3422 216.038 29.3812 216.05 29.4213C216.132 29.6905 216.217 29.9586 216.303 30.2265C216.397 30.5185 216.484 30.8114 216.564 31.1075C216.614 31.289 216.669 31.4672 216.728 31.6458C216.866 32.073 216.957 32.5137 217.057 32.9511C217.112 33.1935 217.169 33.4355 217.227 33.6773C217.236 33.7169 217.246 33.7566 217.255 33.7974C217.329 34.1006 217.407 34.4024 217.486 34.7041C217.588 35.0951 217.682 35.487 217.77 35.8814C217.901 36.4668 218.045 37.0489 218.197 37.6292C218.321 38.1034 218.436 38.579 218.547 39.0562C218.594 39.2569 218.641 39.4576 218.688 39.6582C218.695 39.6876 218.702 39.717 218.709 39.7473C218.793 40.1049 218.879 40.4613 218.975 40.8159C219.046 41.0779 219.105 41.3419 219.164 41.6066C219.225 41.8789 219.291 42.1498 219.359 42.4204C219.369 42.4597 219.379 42.4991 219.389 42.5396C219.438 42.7331 219.487 42.9263 219.537 43.1194C219.761 43.9998 219.761 43.9999 219.633 44.2914C219.266 44.8867 218.523 45.3757 217.859 45.5775C217.644 45.6223 217.431 45.6282 217.213 45.6353C217.171 45.6368 217.128 45.6383 217.085 45.6398C216.94 45.6448 216.794 45.6494 216.649 45.654C216.623 45.6548 216.597 45.6557 216.57 45.6565C214.836 45.7116 213.102 45.7378 211.368 45.7671C211.073 45.7721 210.778 45.7771 210.483 45.7822C210.428 45.7831 210.428 45.7831 210.372 45.7841C210.316 45.785 210.316 45.785 210.26 45.786C209.335 45.8019 208.411 45.8175 207.487 45.833C207.203 45.8377 206.92 45.8425 206.637 45.8473C206.287 45.8532 205.938 45.8591 205.588 45.8648C205.407 45.8678 205.226 45.8708 205.046 45.8739C204.977 45.8751 204.909 45.8762 204.84 45.8774C204.807 45.8779 204.774 45.8785 204.74 45.8791C204.487 45.8833 204.235 45.8865 203.983 45.8895C203.809 45.8917 203.635 45.8955 203.461 45.9008C203.379 45.9031 203.296 45.9049 203.214 45.9066C203.116 45.9086 203.017 45.9114 202.919 45.9154C202.314 45.9243 201.893 45.5608 201.475 45.1633C200.919 44.6219 200.271 43.7773 200.219 42.9807C200.236 42.7053 200.329 42.4392 200.408 42.1763C200.473 41.9515 200.534 41.7255 200.596 41.4997C200.624 41.4003 200.651 41.3009 200.679 41.2015C200.746 40.9562 200.813 40.7108 200.88 40.4654C200.89 40.4306 200.899 40.3958 200.909 40.3599C200.957 40.185 201.004 40.01 201.051 39.8349C201.154 39.4554 201.26 39.0774 201.372 38.7005C201.458 38.4089 201.539 38.117 201.611 37.8217C201.731 37.3348 201.856 36.8523 202.022 36.3791C202.034 36.3455 202.046 36.3118 202.058 36.2772C202.206 35.8605 202.362 35.4469 202.518 35.0333C202.573 34.8876 202.628 34.7419 202.682 34.5962C202.833 34.1936 202.984 33.7912 203.137 33.3892C203.535 32.339 203.899 31.2788 204.257 30.2143C204.394 29.8083 204.535 29.4038 204.677 28.9997C204.926 28.2906 205.167 27.5788 205.407 26.8666C207.592 20.3907 207.592 20.3907 208.972 19.6691C209.949 19.2142 211.034 19.4899 211.895 20.064Z" fill="#D4D827"/>
<path d="M216.263 4.57148C216.438 4.5902 216.615 4.59878 216.791 4.60861C216.876 4.61352 216.96 4.61844 217.045 4.62335C217.176 4.63083 217.306 4.63828 217.437 4.64569C217.94 4.67434 218.442 4.70767 218.944 4.7511C219.298 4.78148 219.653 4.80267 220.009 4.82105C220.652 4.85467 220.652 4.85467 220.838 4.87767C221.127 4.91324 221.419 4.9217 221.71 4.93707C222.393 4.97324 222.393 4.97324 222.661 5.00635C222.88 5.02859 223.1 5.0367 223.319 5.04827C223.787 5.07305 224.254 5.10227 224.721 5.14432C225.145 5.18128 225.57 5.20311 225.994 5.22548C226.467 5.25073 226.467 5.25073 226.644 5.27261C226.933 5.30818 227.225 5.31664 227.515 5.33201C228.198 5.36811 228.198 5.36811 228.464 5.40113C228.726 5.42752 228.99 5.43657 229.253 5.45049C229.935 5.4866 229.935 5.4866 230.202 5.51961C230.464 5.546 230.728 5.55506 230.991 5.56898C231.113 5.57544 231.235 5.58205 231.358 5.58872C231.399 5.59082 231.399 5.59082 231.44 5.59297C231.578 5.60053 231.715 5.61152 231.853 5.62759C232.061 5.6517 232.269 5.66486 232.478 5.67774C232.519 5.68032 232.56 5.68289 232.602 5.68554C232.731 5.69367 232.859 5.70167 232.988 5.70968C233.076 5.7152 233.164 5.72072 233.252 5.72626C233.466 5.73975 233.68 5.75314 233.894 5.76645C233.859 5.91984 233.808 6.06755 233.758 6.21633C233.743 6.26028 233.743 6.26028 233.728 6.30512C233.695 6.40251 233.662 6.49987 233.63 6.59722C233.606 6.66588 233.583 6.73453 233.56 6.80318C233.498 6.98663 233.436 7.17005 233.375 7.35345C233.336 7.46713 233.298 7.58082 233.259 7.69451C232.96 8.58081 232.66 9.46673 232.35 10.349C232.328 10.4115 232.306 10.474 232.284 10.5365C232.273 10.5664 232.263 10.5963 232.252 10.627C232.173 10.8527 232.095 11.0791 232.019 11.3057C231.739 12.1357 231.443 12.9579 231.133 13.777C230.984 14.1705 230.838 14.5652 230.692 14.9599C230.608 15.1864 230.524 15.4129 230.44 15.6395C230.423 15.6867 230.405 15.7339 230.387 15.7825C230.164 16.3852 229.941 16.9877 229.717 17.5901C229.707 17.6191 229.696 17.6481 229.685 17.678C229.346 18.5903 229.005 19.5018 228.663 20.4128C228.392 21.1338 228.123 21.8557 227.86 22.5795C227.669 23.1027 227.476 23.6247 227.281 24.1464C227.254 24.2179 227.228 24.2893 227.201 24.3608C227.18 24.4159 227.18 24.4159 227.16 24.4721C227.046 24.778 226.932 25.0841 226.819 25.3903C226.788 25.4731 226.757 25.556 226.727 25.6388C226.717 25.6662 226.707 25.6936 226.696 25.7219C226.676 25.7773 226.655 25.8328 226.634 25.8882C226.584 26.0244 226.534 26.1606 226.483 26.2969C226.375 26.5898 226.266 26.8825 226.157 27.175C226.131 27.2437 226.105 27.3124 226.08 27.3812C225.901 27.8671 225.667 28.329 225.437 28.7925C225.368 28.933 225.299 29.0741 225.231 29.2151C225.186 29.3053 225.141 29.3954 225.097 29.4855C225.077 29.5273 225.056 29.5692 225.036 29.6123C224.882 29.9178 224.716 30.0978 224.399 30.2303C224.357 30.2419 224.315 30.2535 224.272 30.2654C224.23 30.2774 224.188 30.2895 224.144 30.3019C223.837 30.3762 223.542 30.3801 223.228 30.3814C223.178 30.3822 223.129 30.383 223.078 30.3838C222.649 30.3856 222.202 30.3595 221.845 30.0942C221.69 29.9354 221.61 29.7384 221.522 29.5372C221.489 29.465 221.456 29.3928 221.422 29.3206C221.388 29.246 221.355 29.1712 221.321 29.0963C221.24 28.9153 221.156 28.7357 221.073 28.556C221.009 28.4198 220.946 28.2834 220.883 28.147C220.737 27.832 220.588 27.5182 220.44 27.2045C220.394 27.1078 220.348 27.011 220.302 26.9143C220.126 26.5439 220.126 26.5439 219.95 26.1737C219.485 25.1981 219.044 24.2123 218.609 23.223C218.594 23.188 218.578 23.153 218.562 23.1169C218.429 22.8142 218.296 22.5113 218.164 22.2084C217.952 21.7251 217.739 21.2422 217.525 20.7595C217.51 20.7244 217.494 20.6892 217.478 20.653C217.4 20.475 217.321 20.297 217.242 20.119C217.148 19.9062 217.054 19.6934 216.96 19.4806C216.937 19.428 216.937 19.428 216.913 19.3744C216.835 19.1982 216.757 19.022 216.68 18.8458C216.536 18.5197 216.392 18.1937 216.246 17.8685C215.519 16.2494 215.519 16.2494 215.272 15.3974C215.114 14.8535 214.939 14.3149 214.767 13.7756C214.719 13.6261 214.671 13.4765 214.623 13.3269C214.614 13.2966 214.604 13.2662 214.594 13.235C214.574 13.1732 214.554 13.1114 214.535 13.0496C214.505 12.9557 214.475 12.8619 214.445 12.7681C214.317 12.3693 214.19 11.9703 214.064 11.5712C214.036 11.4832 214.008 11.3951 213.98 11.307C213.83 10.8357 213.83 10.8357 213.767 10.6364C213.581 10.0491 213.392 9.46282 213.196 8.87905C213.101 8.59852 213.015 8.3168 212.933 8.03229C212.872 7.8212 212.804 7.61221 212.737 7.403C212.616 7.02776 212.496 6.65218 212.378 6.27605C212.361 6.21972 212.343 6.1634 212.325 6.10709C212.3 6.02793 212.275 5.94872 212.25 5.86951C212.229 5.80106 212.229 5.80106 212.207 5.73124C212.176 5.62472 212.151 5.5201 212.132 5.411C212.697 5.13851 213.271 4.92177 213.87 4.73674C213.967 4.70673 214.062 4.67507 214.158 4.64271C214.804 4.45212 215.599 4.49298 216.263 4.57148Z" fill="#D4D827"/>
<path d="M210.004 5.5312C210.056 5.58193 210.107 5.6337 210.157 5.68671C210.189 5.71886 210.189 5.71886 210.222 5.75166C210.436 6.01423 210.382 6.39613 210.354 6.71357C210.329 6.9033 210.288 7.08251 210.236 7.26649C210.222 7.31664 210.209 7.36678 210.195 7.41845C209.92 8.36027 209.399 9.22934 208.892 10.0609C208.676 10.4164 208.467 10.7761 208.261 11.1369C208.245 11.165 208.229 11.1931 208.212 11.222C207.964 11.6595 207.762 12.1183 207.556 12.5763C207.359 13.0131 207.156 13.4467 206.95 13.8793C206.695 14.4151 206.444 14.9522 206.196 15.4912C206.051 15.8075 205.904 16.1232 205.758 16.4391C205.742 16.4742 205.725 16.5092 205.709 16.5454C205.527 16.9371 205.345 17.3286 205.162 17.7195C205.107 17.8381 205.052 17.9569 204.997 18.0756C204.902 18.279 204.807 18.4815 204.708 18.683C204.225 19.6759 203.86 20.6989 203.504 21.7432C203.4 22.0467 203.295 22.3496 203.189 22.6524C203.18 22.6782 203.171 22.704 203.161 22.7306C203.106 22.888 203.051 23.0453 202.996 23.2027C202.923 23.4119 202.85 23.6212 202.777 23.8305C202.758 23.8824 202.74 23.9344 202.722 23.9863C202.607 24.3166 202.492 24.6471 202.378 24.978C202.312 25.1702 202.245 25.3624 202.179 25.5545C202.148 25.6432 202.118 25.7319 202.087 25.8207C201.747 26.8208 201.329 27.7456 200.638 28.554C200.609 28.5888 200.58 28.6236 200.55 28.6594C199.95 29.3525 199.072 29.934 198.15 30.0548C197.098 30.1212 197.098 30.1212 196.728 29.9363C196.701 29.867 196.701 29.867 196.676 29.776C196.666 29.7424 196.657 29.7088 196.647 29.6742C196.637 29.6377 196.627 29.6012 196.617 29.5636C196.607 29.526 196.596 29.4883 196.585 29.4496C196.554 29.3354 196.522 29.2212 196.491 29.1069C196.467 29.0188 196.443 28.9307 196.418 28.8426C196.403 28.7863 196.387 28.7299 196.371 28.6736C196.301 28.4206 196.227 28.1689 196.153 27.9172C196.061 27.604 195.977 27.2909 195.9 26.9736C195.845 26.7532 195.776 26.5367 195.71 26.3195C195.633 26.0671 195.568 25.8138 195.506 25.5574C195.459 25.3695 195.403 25.1847 195.346 24.9995C195.258 24.7131 195.182 24.4267 195.111 24.1356C195.064 23.9477 195.008 23.7629 194.951 23.5777C194.863 23.2913 194.787 23.0049 194.716 22.7138C194.669 22.5259 194.613 22.3411 194.556 22.1559C194.468 21.8695 194.392 21.5831 194.321 21.292C194.274 21.1041 194.218 20.9193 194.161 20.7341C194.073 20.4477 193.997 20.1613 193.926 19.8702C193.871 19.648 193.802 19.4298 193.735 19.2108C193.673 19.0056 193.617 18.8 193.566 18.5915C193.406 17.9342 193.169 17.3032 192.937 16.6686C192.902 16.5729 192.867 16.4772 192.832 16.3814C192.497 15.4658 192.16 14.5513 191.823 13.6369C191.651 13.1723 191.481 12.7076 191.31 12.2428C191.296 12.2038 191.281 12.1648 191.266 12.1245C191.209 11.9679 191.151 11.8112 191.094 11.6545C190.986 11.3613 190.878 11.0681 190.771 10.7749C190.723 10.6452 190.675 10.5155 190.628 10.3858C190.598 10.3043 190.568 10.2229 190.538 10.1414C190.442 9.8809 190.346 9.62033 190.251 9.3597C190.236 9.3203 190.222 9.2809 190.207 9.24031C190.164 9.12174 190.12 9.00314 190.077 8.88453C190.057 8.83071 190.057 8.83071 190.037 8.7758C189.765 8.02885 189.704 7.29301 190.044 6.55621C190.367 5.90351 190.857 5.35901 191.559 5.11278C191.745 5.05224 191.923 5.02725 192.117 5.01255C192.172 5.00797 192.172 5.00797 192.229 5.00331C192.81 4.95782 193.394 4.93374 193.977 4.9064C194.157 4.89789 194.338 4.88916 194.518 4.88045C194.828 4.8655 195.138 4.85067 195.449 4.83594C196.187 4.80089 196.924 4.76534 197.662 4.72982C197.83 4.72172 197.999 4.71363 198.167 4.70554C199.339 4.64926 200.51 4.59163 201.682 4.53238C201.793 4.52675 201.905 4.52112 202.016 4.51549C202.683 4.48183 203.35 4.44811 204.016 4.41397C204.274 4.40078 204.532 4.38769 204.79 4.37469C204.937 4.36724 205.085 4.35975 205.232 4.3521C206.912 4.26501 208.648 4.39331 210.004 5.5312Z" fill="#D4D827"/>
<path d="M270.895 62.064C271.05 62.1732 271.19 62.291 271.329 62.4195C271.363 62.4505 271.363 62.4505 271.397 62.4821C271.947 62.9908 272.365 63.5745 272.712 64.2362C272.734 64.28 272.757 64.3238 272.781 64.3689C273.004 64.8202 273.152 65.2974 273.304 65.7765C273.319 65.8237 273.334 65.8709 273.349 65.9195C273.388 66.0428 273.425 66.1663 273.462 66.2899C273.505 66.434 273.549 66.578 273.593 66.7219C273.605 66.7607 273.616 66.7996 273.628 66.8395C273.734 67.1857 273.843 67.5305 273.954 67.8751C274.05 68.1769 274.142 68.4798 274.234 68.783C274.374 69.2451 274.518 69.7059 274.665 70.1658C274.761 70.4676 274.853 70.7705 274.945 71.0737C274.968 71.1502 274.991 71.2268 275.015 71.3033C275.026 71.3422 275.038 71.3812 275.05 71.4213C275.132 71.6905 275.217 71.9586 275.303 72.2265C275.397 72.5185 275.484 72.8114 275.564 73.1075C275.614 73.289 275.669 73.4672 275.728 73.6458C275.866 74.073 275.957 74.5137 276.057 74.9511C276.112 75.1935 276.169 75.4355 276.227 75.6773C276.236 75.7169 276.246 75.7566 276.255 75.7974C276.329 76.1006 276.407 76.4024 276.486 76.7041C276.588 77.0951 276.682 77.487 276.77 77.8814C276.901 78.4668 277.045 79.0489 277.197 79.6292C277.321 80.1034 277.436 80.579 277.547 81.0562C277.594 81.2569 277.641 81.4576 277.688 81.6582C277.695 81.6876 277.702 81.717 277.709 81.7473C277.793 82.1049 277.879 82.4613 277.975 82.8159C278.046 83.0779 278.105 83.3419 278.164 83.6066C278.225 83.8789 278.291 84.1498 278.359 84.4204C278.369 84.4597 278.379 84.4991 278.389 84.5396C278.438 84.7331 278.487 84.9263 278.537 85.1194C278.761 85.9998 278.761 85.9999 278.633 86.2914C278.266 86.8867 277.523 87.3757 276.859 87.5775C276.644 87.6223 276.431 87.6282 276.213 87.6353C276.171 87.6368 276.128 87.6383 276.085 87.6398C275.94 87.6448 275.794 87.6494 275.649 87.654C275.623 87.6548 275.597 87.6557 275.57 87.6565C273.836 87.7116 272.102 87.7378 270.368 87.7671C270.073 87.7721 269.778 87.7771 269.483 87.7822C269.428 87.7831 269.428 87.7831 269.372 87.7841C269.316 87.785 269.316 87.785 269.26 87.786C268.335 87.8019 267.411 87.8175 266.487 87.833C266.203 87.8377 265.92 87.8425 265.637 87.8473C265.287 87.8532 264.938 87.8591 264.588 87.8648C264.407 87.8678 264.226 87.8708 264.046 87.8739C263.977 87.8751 263.909 87.8762 263.84 87.8774C263.807 87.8779 263.774 87.8785 263.74 87.8791C263.487 87.8833 263.235 87.8865 262.983 87.8895C262.809 87.8917 262.635 87.8955 262.461 87.9008C262.379 87.9031 262.296 87.9049 262.214 87.9066C262.116 87.9086 262.017 87.9114 261.919 87.9154C261.314 87.9243 260.893 87.5608 260.475 87.1633C259.919 86.6219 259.271 85.7773 259.219 84.9807C259.236 84.7053 259.329 84.4392 259.408 84.1763C259.473 83.9515 259.534 83.7255 259.596 83.4997C259.624 83.4003 259.651 83.3009 259.679 83.2015C259.746 82.9562 259.813 82.7108 259.88 82.4654C259.89 82.4306 259.899 82.3958 259.909 82.3599C259.957 82.185 260.004 82.01 260.051 81.8349C260.154 81.4554 260.26 81.0774 260.372 80.7005C260.458 80.4089 260.539 80.117 260.611 79.8217C260.731 79.3348 260.856 78.8523 261.022 78.3791C261.034 78.3455 261.046 78.3118 261.058 78.2772C261.206 77.8605 261.362 77.4469 261.518 77.0333C261.573 76.8876 261.628 76.7419 261.682 76.5962C261.833 76.1936 261.984 75.7912 262.137 75.3892C262.535 74.339 262.899 73.2788 263.257 72.2143C263.394 71.8083 263.535 71.4038 263.677 70.9997C263.926 70.2906 264.167 69.5788 264.407 68.8666C266.592 62.3907 266.592 62.3907 267.972 61.6691C268.949 61.2142 270.034 61.4899 270.895 62.064Z" fill="#D4D827"/>
<path d="M275.263 46.5715C275.438 46.5902 275.615 46.5988 275.791 46.6086C275.876 46.6135 275.96 46.6184 276.045 46.6233C276.176 46.6308 276.306 46.6383 276.437 46.6457C276.94 46.6743 277.442 46.7077 277.944 46.7511C278.298 46.7815 278.653 46.8027 279.009 46.8211C279.652 46.8547 279.652 46.8547 279.838 46.8777C280.127 46.9132 280.419 46.9217 280.71 46.9371C281.393 46.9732 281.393 46.9732 281.661 47.0064C281.88 47.0286 282.1 47.0367 282.319 47.0483C282.787 47.073 283.254 47.1023 283.721 47.1443C284.145 47.1813 284.57 47.2031 284.994 47.2255C285.467 47.2507 285.467 47.2507 285.644 47.2726C285.933 47.3082 286.225 47.3166 286.515 47.332C287.198 47.3681 287.198 47.3681 287.464 47.4011C287.726 47.4275 287.99 47.4366 288.253 47.4505C288.935 47.4866 288.935 47.4866 289.202 47.5196C289.464 47.546 289.728 47.5551 289.991 47.569C290.113 47.5754 290.235 47.582 290.358 47.5887C290.399 47.5908 290.399 47.5908 290.44 47.593C290.578 47.6005 290.715 47.6115 290.853 47.6276C291.061 47.6517 291.269 47.6649 291.478 47.6777C291.519 47.6803 291.56 47.6829 291.602 47.6855C291.731 47.6937 291.859 47.7017 291.988 47.7097C292.076 47.7152 292.164 47.7207 292.252 47.7263C292.466 47.7397 292.68 47.7531 292.894 47.7664C292.859 47.9198 292.808 48.0676 292.758 48.2163C292.743 48.2603 292.743 48.2603 292.728 48.3051C292.695 48.4025 292.662 48.4999 292.63 48.5972C292.606 48.6659 292.583 48.7345 292.56 48.8032C292.498 48.9866 292.436 49.17 292.375 49.3534C292.336 49.4671 292.298 49.5808 292.259 49.6945C291.96 50.5808 291.66 51.4667 291.35 52.349C291.328 52.4115 291.306 52.474 291.284 52.5365C291.273 52.5664 291.263 52.5963 291.252 52.627C291.173 52.8527 291.095 53.0791 291.019 53.3057C290.739 54.1357 290.443 54.9579 290.133 55.777C289.984 56.1705 289.838 56.5652 289.692 56.9599C289.608 57.1864 289.524 57.4129 289.44 57.6395C289.423 57.6867 289.405 57.7339 289.387 57.7825C289.164 58.3852 288.941 58.9877 288.717 59.5901C288.707 59.6191 288.696 59.6481 288.685 59.678C288.346 60.5903 288.005 61.5018 287.663 62.4128C287.392 63.1338 287.123 63.8557 286.86 64.5795C286.669 65.1027 286.476 65.6247 286.281 66.1464C286.254 66.2179 286.228 66.2893 286.201 66.3608C286.18 66.4159 286.18 66.4159 286.16 66.4721C286.046 66.778 285.932 67.0841 285.819 67.3903C285.788 67.4731 285.757 67.556 285.727 67.6388C285.717 67.6662 285.707 67.6936 285.696 67.7219C285.676 67.7773 285.655 67.8328 285.634 67.8882C285.584 68.0244 285.534 68.1606 285.483 68.2969C285.375 68.5898 285.266 68.8825 285.157 69.175C285.131 69.2437 285.105 69.3124 285.08 69.3812C284.901 69.8671 284.667 70.329 284.437 70.7925C284.368 70.933 284.299 71.0741 284.231 71.2151C284.186 71.3053 284.141 71.3954 284.097 71.4855C284.077 71.5273 284.056 71.5692 284.036 71.6123C283.882 71.9178 283.716 72.0978 283.399 72.2303C283.357 72.2419 283.315 72.2535 283.272 72.2654C283.23 72.2774 283.188 72.2895 283.144 72.3019C282.837 72.3762 282.542 72.3801 282.228 72.3814C282.178 72.3822 282.129 72.383 282.078 72.3838C281.649 72.3856 281.202 72.3595 280.845 72.0942C280.69 71.9354 280.61 71.7384 280.522 71.5372C280.489 71.465 280.456 71.3928 280.422 71.3206C280.388 71.246 280.355 71.1712 280.321 71.0963C280.24 70.9153 280.156 70.7357 280.073 70.556C280.009 70.4198 279.946 70.2834 279.883 70.147C279.737 69.832 279.588 69.5182 279.44 69.2045C279.394 69.1078 279.348 69.011 279.302 68.9143C279.126 68.5439 279.126 68.5439 278.95 68.1737C278.485 67.1981 278.044 66.2123 277.609 65.223C277.594 65.188 277.578 65.153 277.562 65.1169C277.429 64.8142 277.296 64.5113 277.164 64.2084C276.952 63.7251 276.739 63.2422 276.525 62.7595C276.51 62.7244 276.494 62.6892 276.478 62.653C276.4 62.475 276.321 62.297 276.242 62.119C276.148 61.9062 276.054 61.6934 275.96 61.4806C275.937 61.428 275.937 61.428 275.913 61.3744C275.835 61.1982 275.757 61.022 275.68 60.8458C275.536 60.5197 275.392 60.1937 275.246 59.8685C274.519 58.2494 274.519 58.2494 274.272 57.3974C274.114 56.8535 273.939 56.3149 273.767 55.7756C273.719 55.6261 273.671 55.4765 273.623 55.3269C273.614 55.2966 273.604 55.2662 273.594 55.235C273.574 55.1732 273.554 55.1114 273.535 55.0496C273.505 54.9557 273.475 54.8619 273.445 54.7681C273.317 54.3693 273.19 53.9703 273.064 53.5712C273.036 53.4832 273.008 53.3951 272.98 53.307C272.83 52.8357 272.83 52.8357 272.767 52.6364C272.581 52.0491 272.392 51.4628 272.196 50.8791C272.101 50.5985 272.015 50.3168 271.933 50.0323C271.872 49.8212 271.804 49.6122 271.737 49.403C271.616 49.0278 271.496 48.6522 271.378 48.2761C271.361 48.2197 271.343 48.1634 271.325 48.1071C271.3 48.0279 271.275 47.9487 271.25 47.8695C271.229 47.8011 271.229 47.8011 271.207 47.7312C271.176 47.6247 271.151 47.5201 271.132 47.411C271.697 47.1385 272.271 46.9218 272.87 46.7367C272.967 46.7067 273.062 46.6751 273.158 46.6427C273.804 46.4521 274.599 46.493 275.263 46.5715Z" fill="#D4D827"/>
<path d="M269.004 47.5312C269.056 47.5819 269.107 47.6337 269.157 47.6867C269.189 47.7189 269.189 47.7189 269.222 47.7517C269.436 48.0142 269.382 48.3961 269.354 48.7136C269.329 48.9033 269.288 49.0825 269.236 49.2665C269.222 49.3166 269.209 49.3668 269.195 49.4184C268.92 50.3603 268.399 51.2293 267.892 52.0609C267.676 52.4164 267.467 52.7761 267.261 53.1369C267.245 53.165 267.229 53.1931 267.212 53.222C266.964 53.6595 266.762 54.1183 266.556 54.5763C266.359 55.0131 266.156 55.4467 265.95 55.8793C265.695 56.4151 265.444 56.9522 265.196 57.4912C265.051 57.8075 264.904 58.1232 264.758 58.4391C264.742 58.4742 264.725 58.5092 264.709 58.5454C264.527 58.9371 264.345 59.3286 264.162 59.7195C264.107 59.8381 264.052 59.9569 263.997 60.0756C263.902 60.279 263.807 60.4815 263.708 60.683C263.225 61.6759 262.86 62.6989 262.504 63.7432C262.4 64.0467 262.295 64.3496 262.189 64.6524C262.18 64.6782 262.171 64.704 262.161 64.7306C262.106 64.888 262.051 65.0453 261.996 65.2027C261.923 65.4119 261.85 65.6212 261.777 65.8305C261.758 65.8824 261.74 65.9344 261.722 65.9863C261.607 66.3166 261.492 66.6471 261.378 66.978C261.312 67.1702 261.245 67.3624 261.179 67.5545C261.148 67.6432 261.118 67.7319 261.087 67.8207C260.747 68.8208 260.329 69.7456 259.638 70.554C259.609 70.5888 259.58 70.6236 259.55 70.6594C258.95 71.3525 258.072 71.934 257.15 72.0548C256.098 72.1212 256.098 72.1212 255.728 71.9363C255.701 71.867 255.701 71.867 255.676 71.776C255.666 71.7424 255.657 71.7088 255.647 71.6742C255.637 71.6377 255.627 71.6012 255.617 71.5636C255.607 71.526 255.596 71.4883 255.585 71.4496C255.554 71.3354 255.522 71.2212 255.491 71.1069C255.467 71.0188 255.443 70.9307 255.418 70.8426C255.403 70.7863 255.387 70.7299 255.371 70.6736C255.301 70.4206 255.227 70.1689 255.153 69.9172C255.061 69.604 254.977 69.2909 254.9 68.9736C254.845 68.7532 254.776 68.5367 254.71 68.3195C254.633 68.0671 254.568 67.8138 254.506 67.5574C254.459 67.3695 254.403 67.1847 254.346 66.9995C254.258 66.7131 254.182 66.4267 254.111 66.1356C254.064 65.9477 254.008 65.7629 253.951 65.5777C253.863 65.2913 253.787 65.0049 253.716 64.7138C253.669 64.5259 253.613 64.3411 253.556 64.1559C253.468 63.8695 253.392 63.5831 253.321 63.292C253.274 63.1041 253.218 62.9193 253.161 62.7341C253.073 62.4477 252.997 62.1613 252.926 61.8702C252.871 61.648 252.802 61.4298 252.735 61.2108C252.673 61.0056 252.617 60.8 252.566 60.5915C252.406 59.9342 252.169 59.3032 251.937 58.6686C251.902 58.5729 251.867 58.4772 251.832 58.3814C251.497 57.4658 251.16 56.5513 250.823 55.6369C250.651 55.1723 250.481 54.7076 250.31 54.2428C250.296 54.2038 250.281 54.1648 250.266 54.1245C250.209 53.9679 250.151 53.8112 250.094 53.6545C249.986 53.3613 249.878 53.0681 249.771 52.7749C249.723 52.6452 249.675 52.5155 249.628 52.3858C249.598 52.3043 249.568 52.2229 249.538 52.1414C249.442 51.8809 249.346 51.6203 249.251 51.3597C249.236 51.3203 249.222 51.2809 249.207 51.2403C249.164 51.1217 249.12 51.0031 249.077 50.8845C249.057 50.8307 249.057 50.8307 249.037 50.7758C248.765 50.0289 248.704 49.293 249.044 48.5562C249.367 47.9035 249.857 47.359 250.559 47.1128C250.745 47.0522 250.923 47.0273 251.117 47.0125C251.172 47.008 251.172 47.008 251.229 47.0033C251.81 46.9578 252.394 46.9337 252.977 46.9064C253.157 46.8979 253.338 46.8892 253.518 46.8804C253.828 46.8655 254.138 46.8507 254.449 46.8359C255.187 46.8009 255.924 46.7653 256.662 46.7298C256.83 46.7217 256.999 46.7136 257.167 46.7055C258.339 46.6493 259.51 46.5916 260.682 46.5324C260.793 46.5267 260.905 46.5211 261.016 46.5155C261.683 46.4818 262.35 46.4481 263.016 46.414C263.274 46.4008 263.532 46.3877 263.79 46.3747C263.937 46.3672 264.085 46.3597 264.232 46.3521C265.912 46.265 267.648 46.3933 269.004 47.5312Z" fill="#D4D827"/>
<path d="M338.895 45.064C339.05 45.1732 339.19 45.291 339.329 45.4195C339.363 45.4505 339.363 45.4505 339.397 45.4821C339.947 45.9908 340.365 46.5745 340.712 47.2362C340.734 47.28 340.757 47.3238 340.781 47.3689C341.004 47.8202 341.152 48.2974 341.304 48.7765C341.319 48.8237 341.334 48.8709 341.349 48.9195C341.388 49.0428 341.425 49.1663 341.462 49.2899C341.505 49.434 341.549 49.578 341.593 49.7219C341.605 49.7607 341.616 49.7996 341.628 49.8395C341.734 50.1857 341.843 50.5305 341.954 50.8751C342.05 51.1769 342.142 51.4798 342.234 51.783C342.374 52.2451 342.518 52.7059 342.665 53.1658C342.761 53.4676 342.853 53.7705 342.945 54.0737C342.968 54.1502 342.991 54.2268 343.015 54.3033C343.026 54.3422 343.038 54.3812 343.05 54.4213C343.132 54.6905 343.217 54.9586 343.303 55.2265C343.397 55.5185 343.484 55.8114 343.564 56.1075C343.614 56.289 343.669 56.4672 343.728 56.6458C343.866 57.073 343.957 57.5137 344.057 57.9511C344.112 58.1935 344.169 58.4355 344.227 58.6773C344.236 58.7169 344.246 58.7566 344.255 58.7974C344.329 59.1006 344.407 59.4024 344.486 59.7041C344.588 60.0951 344.682 60.487 344.77 60.8814C344.901 61.4668 345.045 62.0489 345.197 62.6292C345.321 63.1034 345.436 63.579 345.547 64.0562C345.594 64.2569 345.641 64.4576 345.688 64.6582C345.695 64.6876 345.702 64.717 345.709 64.7473C345.793 65.1049 345.879 65.4613 345.975 65.8159C346.046 66.0779 346.105 66.3419 346.164 66.6066C346.225 66.8789 346.291 67.1498 346.359 67.4204C346.369 67.4597 346.379 67.4991 346.389 67.5396C346.438 67.7331 346.487 67.9263 346.537 68.1194C346.761 68.9998 346.761 68.9999 346.633 69.2914C346.266 69.8867 345.523 70.3757 344.859 70.5775C344.644 70.6223 344.431 70.6282 344.213 70.6353C344.171 70.6368 344.128 70.6383 344.085 70.6398C343.94 70.6448 343.794 70.6494 343.649 70.654C343.623 70.6548 343.597 70.6557 343.57 70.6565C341.836 70.7116 340.102 70.7378 338.368 70.7671C338.073 70.7721 337.778 70.7771 337.483 70.7822C337.428 70.7831 337.428 70.7831 337.372 70.7841C337.316 70.785 337.316 70.785 337.26 70.786C336.335 70.8019 335.411 70.8175 334.487 70.833C334.203 70.8377 333.92 70.8425 333.637 70.8473C333.287 70.8532 332.938 70.8591 332.588 70.8648C332.407 70.8678 332.226 70.8708 332.046 70.8739C331.977 70.8751 331.909 70.8762 331.84 70.8774C331.807 70.8779 331.774 70.8785 331.74 70.8791C331.487 70.8833 331.235 70.8865 330.983 70.8895C330.809 70.8917 330.635 70.8955 330.461 70.9008C330.379 70.9031 330.296 70.9049 330.214 70.9066C330.116 70.9086 330.017 70.9114 329.919 70.9154C329.314 70.9243 328.893 70.5608 328.475 70.1633C327.919 69.6219 327.271 68.7773 327.219 67.9807C327.236 67.7053 327.329 67.4392 327.408 67.1763C327.473 66.9515 327.534 66.7255 327.596 66.4997C327.624 66.4003 327.651 66.3009 327.679 66.2015C327.746 65.9562 327.813 65.7108 327.88 65.4654C327.89 65.4306 327.899 65.3958 327.909 65.3599C327.957 65.185 328.004 65.01 328.051 64.8349C328.154 64.4554 328.26 64.0774 328.372 63.7005C328.458 63.4089 328.539 63.117 328.611 62.8217C328.731 62.3348 328.856 61.8523 329.022 61.3791C329.034 61.3455 329.046 61.3118 329.058 61.2772C329.206 60.8605 329.362 60.4469 329.518 60.0333C329.573 59.8876 329.628 59.7419 329.682 59.5962C329.833 59.1936 329.984 58.7912 330.137 58.3892C330.535 57.339 330.899 56.2788 331.257 55.2143C331.394 54.8083 331.535 54.4038 331.677 53.9997C331.926 53.2906 332.167 52.5788 332.407 51.8666C334.592 45.3907 334.592 45.3907 335.972 44.6691C336.949 44.2142 338.034 44.4899 338.895 45.064Z" fill="#D4D827"/>
<path d="M343.263 29.5715C343.438 29.5902 343.615 29.5988 343.791 29.6086C343.876 29.6135 343.96 29.6184 344.045 29.6233C344.176 29.6308 344.306 29.6383 344.437 29.6457C344.94 29.6743 345.442 29.7077 345.944 29.7511C346.298 29.7815 346.653 29.8027 347.009 29.8211C347.652 29.8547 347.652 29.8547 347.838 29.8777C348.127 29.9132 348.419 29.9217 348.71 29.9371C349.393 29.9732 349.393 29.9732 349.661 30.0064C349.88 30.0286 350.1 30.0367 350.319 30.0483C350.787 30.073 351.254 30.1023 351.721 30.1443C352.145 30.1813 352.57 30.2031 352.994 30.2255C353.467 30.2507 353.467 30.2507 353.644 30.2726C353.933 30.3082 354.225 30.3166 354.515 30.332C355.198 30.3681 355.198 30.3681 355.464 30.4011C355.726 30.4275 355.99 30.4366 356.253 30.4505C356.935 30.4866 356.935 30.4866 357.202 30.5196C357.464 30.546 357.728 30.5551 357.991 30.569C358.113 30.5754 358.235 30.582 358.358 30.5887C358.399 30.5908 358.399 30.5908 358.44 30.593C358.578 30.6005 358.715 30.6115 358.853 30.6276C359.061 30.6517 359.269 30.6649 359.478 30.6777C359.519 30.6803 359.56 30.6829 359.602 30.6855C359.731 30.6937 359.859 30.7017 359.988 30.7097C360.076 30.7152 360.164 30.7207 360.252 30.7263C360.466 30.7397 360.68 30.7531 360.894 30.7664C360.859 30.9198 360.808 31.0676 360.758 31.2163C360.743 31.2603 360.743 31.2603 360.728 31.3051C360.695 31.4025 360.662 31.4999 360.63 31.5972C360.606 31.6659 360.583 31.7345 360.56 31.8032C360.498 31.9866 360.436 32.17 360.375 32.3534C360.336 32.4671 360.298 32.5808 360.259 32.6945C359.96 33.5808 359.66 34.4667 359.35 35.349C359.328 35.4115 359.306 35.474 359.284 35.5365C359.273 35.5664 359.263 35.5963 359.252 35.627C359.173 35.8527 359.095 36.0791 359.019 36.3057C358.739 37.1357 358.443 37.9579 358.133 38.777C357.984 39.1705 357.838 39.5652 357.692 39.9599C357.608 40.1864 357.524 40.4129 357.44 40.6395C357.423 40.6867 357.405 40.7339 357.387 40.7825C357.164 41.3852 356.941 41.9877 356.717 42.5901C356.707 42.6191 356.696 42.6481 356.685 42.678C356.346 43.5903 356.005 44.5018 355.663 45.4128C355.392 46.1338 355.123 46.8557 354.86 47.5795C354.669 48.1027 354.476 48.6247 354.281 49.1464C354.254 49.2179 354.228 49.2893 354.201 49.3608C354.18 49.4159 354.18 49.4159 354.16 49.4721C354.046 49.778 353.932 50.0841 353.819 50.3903C353.788 50.4731 353.757 50.556 353.727 50.6388C353.717 50.6662 353.707 50.6936 353.696 50.7219C353.676 50.7773 353.655 50.8328 353.634 50.8882C353.584 51.0244 353.534 51.1606 353.483 51.2969C353.375 51.5898 353.266 51.8825 353.157 52.175C353.131 52.2437 353.105 52.3124 353.08 52.3812C352.901 52.8671 352.667 53.329 352.437 53.7925C352.368 53.933 352.299 54.0741 352.231 54.2151C352.186 54.3053 352.141 54.3954 352.097 54.4855C352.077 54.5273 352.056 54.5692 352.036 54.6123C351.882 54.9178 351.716 55.0978 351.399 55.2303C351.357 55.2419 351.315 55.2535 351.272 55.2654C351.23 55.2774 351.188 55.2895 351.144 55.3019C350.837 55.3762 350.542 55.3801 350.228 55.3814C350.178 55.3822 350.129 55.383 350.078 55.3838C349.649 55.3856 349.202 55.3595 348.845 55.0942C348.69 54.9354 348.61 54.7384 348.522 54.5372C348.489 54.465 348.456 54.3928 348.422 54.3206C348.388 54.246 348.355 54.1712 348.321 54.0963C348.24 53.9153 348.156 53.7357 348.073 53.556C348.009 53.4198 347.946 53.2834 347.883 53.147C347.737 52.832 347.588 52.5182 347.44 52.2045C347.394 52.1078 347.348 52.011 347.302 51.9143C347.126 51.5439 347.126 51.5439 346.95 51.1737C346.485 50.1981 346.044 49.2123 345.609 48.223C345.594 48.188 345.578 48.153 345.562 48.1169C345.429 47.8142 345.296 47.5113 345.164 47.2084C344.952 46.7251 344.739 46.2422 344.525 45.7595C344.51 45.7244 344.494 45.6892 344.478 45.653C344.4 45.475 344.321 45.297 344.242 45.119C344.148 44.9062 344.054 44.6934 343.96 44.4806C343.937 44.428 343.937 44.428 343.913 44.3744C343.835 44.1982 343.757 44.022 343.68 43.8458C343.536 43.5197 343.392 43.1937 343.246 42.8685C342.519 41.2494 342.519 41.2494 342.272 40.3974C342.114 39.8535 341.939 39.3149 341.767 38.7756C341.719 38.6261 341.671 38.4765 341.623 38.3269C341.614 38.2966 341.604 38.2662 341.594 38.235C341.574 38.1732 341.554 38.1114 341.535 38.0496C341.505 37.9557 341.475 37.8619 341.445 37.7681C341.317 37.3693 341.19 36.9703 341.064 36.5712C341.036 36.4832 341.008 36.3951 340.98 36.307C340.83 35.8357 340.83 35.8357 340.767 35.6364C340.581 35.0491 340.392 34.4628 340.196 33.8791C340.101 33.5985 340.015 33.3168 339.933 33.0323C339.872 32.8212 339.804 32.6122 339.737 32.403C339.616 32.0278 339.496 31.6522 339.378 31.2761C339.361 31.2197 339.343 31.1634 339.325 31.1071C339.3 31.0279 339.275 30.9487 339.25 30.8695C339.229 30.8011 339.229 30.8011 339.207 30.7312C339.176 30.6247 339.151 30.5201 339.132 30.411C339.697 30.1385 340.271 29.9218 340.87 29.7367C340.967 29.7067 341.062 29.6751 341.158 29.6427C341.804 29.4521 342.599 29.493 343.263 29.5715Z" fill="#D4D827"/>
<path d="M337.004 30.5312C337.056 30.5819 337.107 30.6337 337.157 30.6867C337.189 30.7189 337.189 30.7189 337.222 30.7517C337.436 31.0142 337.382 31.3961 337.354 31.7136C337.329 31.9033 337.288 32.0825 337.236 32.2665C337.222 32.3166 337.209 32.3668 337.195 32.4184C336.92 33.3603 336.399 34.2293 335.892 35.0609C335.676 35.4164 335.467 35.7761 335.261 36.1369C335.245 36.165 335.229 36.1931 335.212 36.222C334.964 36.6595 334.762 37.1183 334.556 37.5763C334.359 38.0131 334.156 38.4467 333.95 38.8793C333.695 39.4151 333.444 39.9522 333.196 40.4912C333.051 40.8075 332.904 41.1232 332.758 41.4391C332.742 41.4742 332.725 41.5092 332.709 41.5454C332.527 41.9371 332.345 42.3286 332.162 42.7195C332.107 42.8381 332.052 42.9569 331.997 43.0756C331.902 43.279 331.807 43.4815 331.708 43.683C331.225 44.6759 330.86 45.6989 330.504 46.7432C330.4 47.0467 330.295 47.3496 330.189 47.6524C330.18 47.6782 330.171 47.704 330.161 47.7306C330.106 47.888 330.051 48.0453 329.996 48.2027C329.923 48.4119 329.85 48.6212 329.777 48.8305C329.758 48.8824 329.74 48.9344 329.722 48.9863C329.607 49.3166 329.492 49.6471 329.378 49.978C329.312 50.1702 329.245 50.3624 329.179 50.5545C329.148 50.6432 329.118 50.7319 329.087 50.8207C328.747 51.8208 328.329 52.7456 327.638 53.554C327.609 53.5888 327.58 53.6236 327.55 53.6594C326.95 54.3525 326.072 54.934 325.15 55.0548C324.098 55.1212 324.098 55.1212 323.728 54.9363C323.701 54.867 323.701 54.867 323.676 54.776C323.666 54.7424 323.657 54.7088 323.647 54.6742C323.637 54.6377 323.627 54.6012 323.617 54.5636C323.607 54.526 323.596 54.4883 323.585 54.4496C323.554 54.3354 323.522 54.2212 323.491 54.1069C323.467 54.0188 323.443 53.9307 323.418 53.8426C323.403 53.7863 323.387 53.7299 323.371 53.6736C323.301 53.4206 323.227 53.1689 323.153 52.9172C323.061 52.604 322.977 52.2909 322.9 51.9736C322.845 51.7532 322.776 51.5367 322.71 51.3195C322.633 51.0671 322.568 50.8138 322.506 50.5574C322.459 50.3695 322.403 50.1847 322.346 49.9995C322.258 49.7131 322.182 49.4267 322.111 49.1356C322.064 48.9477 322.008 48.7629 321.951 48.5777C321.863 48.2913 321.787 48.0049 321.716 47.7138C321.669 47.5259 321.613 47.3411 321.556 47.1559C321.468 46.8695 321.392 46.5831 321.321 46.292C321.274 46.1041 321.218 45.9193 321.161 45.7341C321.073 45.4477 320.997 45.1613 320.926 44.8702C320.871 44.648 320.802 44.4298 320.735 44.2108C320.673 44.0056 320.617 43.8 320.566 43.5915C320.406 42.9342 320.169 42.3032 319.937 41.6686C319.902 41.5729 319.867 41.4772 319.832 41.3814C319.497 40.4658 319.16 39.5513 318.823 38.6369C318.651 38.1723 318.481 37.7076 318.31 37.2428C318.296 37.2038 318.281 37.1648 318.266 37.1245C318.209 36.9679 318.151 36.8112 318.094 36.6545C317.986 36.3613 317.878 36.0681 317.771 35.7749C317.723 35.6452 317.675 35.5155 317.628 35.3858C317.598 35.3043 317.568 35.2229 317.538 35.1414C317.442 34.8809 317.346 34.6203 317.251 34.3597C317.236 34.3203 317.222 34.2809 317.207 34.2403C317.164 34.1217 317.12 34.0031 317.077 33.8845C317.057 33.8307 317.057 33.8307 317.037 33.7758C316.765 33.0289 316.704 32.293 317.044 31.5562C317.367 30.9035 317.857 30.359 318.559 30.1128C318.745 30.0522 318.923 30.0273 319.117 30.0125C319.172 30.008 319.172 30.008 319.229 30.0033C319.81 29.9578 320.394 29.9337 320.977 29.9064C321.157 29.8979 321.338 29.8892 321.518 29.8804C321.828 29.8655 322.138 29.8507 322.449 29.8359C323.187 29.8009 323.924 29.7653 324.662 29.7298C324.83 29.7217 324.999 29.7136 325.167 29.7055C326.339 29.6493 327.51 29.5916 328.682 29.5324C328.793 29.5267 328.905 29.5211 329.016 29.5155C329.683 29.4818 330.35 29.4481 331.016 29.414C331.274 29.4008 331.532 29.3877 331.79 29.3747C331.937 29.3672 332.085 29.3597 332.232 29.3521C333.912 29.265 335.648 29.3933 337.004 30.5312Z" fill="#D4D827"/>
<path d="M23.8947 45.064C24.0496 45.1732 24.19 45.291 24.3292 45.4195C24.363 45.4505 24.363 45.4505 24.3975 45.4821C24.9466 45.9908 25.3648 46.5745 25.7115 47.2362C25.7345 47.28 25.7574 47.3238 25.7811 47.3689C26.0042 47.8202 26.1524 48.2974 26.3039 48.7765C26.3189 48.8237 26.3339 48.8709 26.3493 48.9195C26.3876 49.0428 26.4249 49.1663 26.4619 49.2899C26.5054 49.434 26.5491 49.578 26.5928 49.7219C26.6045 49.7607 26.6163 49.7996 26.6284 49.8395C26.7339 50.1857 26.8434 50.5305 26.9536 50.8751C27.05 51.1769 27.1424 51.4798 27.2341 51.783C27.3741 52.2451 27.5175 52.7059 27.6645 53.1658C27.7609 53.4676 27.8533 53.7705 27.945 54.0737C27.9682 54.1502 27.9914 54.2268 28.0146 54.3033C28.0264 54.3422 28.0382 54.3812 28.0504 54.4213C28.1323 54.6905 28.2172 54.9586 28.3034 55.2265C28.3973 55.5185 28.4844 55.8114 28.5643 56.1075C28.6136 56.289 28.6689 56.4672 28.728 56.6458C28.8664 57.073 28.9569 57.5137 29.0566 57.9511C29.1119 58.1935 29.1688 58.4355 29.2266 58.6773C29.2361 58.7169 29.2456 58.7566 29.2554 58.7974C29.3286 59.1006 29.4067 59.4024 29.4858 59.7041C29.5883 60.0951 29.6821 60.487 29.7702 60.8814C29.9011 61.4668 30.0451 62.0489 30.1967 62.6292C30.3207 63.1034 30.4361 63.579 30.5473 64.0562C30.5941 64.2569 30.641 64.4576 30.688 64.6582C30.6948 64.6876 30.7017 64.717 30.7088 64.7473C30.7926 65.1049 30.8795 65.4613 30.9755 65.8159C31.0458 66.0779 31.1051 66.3419 31.1641 66.6066C31.2252 66.8789 31.2912 67.1498 31.3594 67.4204C31.3693 67.4597 31.3791 67.4991 31.3893 67.5396C31.4377 67.7331 31.4868 67.9263 31.5368 68.1194C31.7614 68.9998 31.7614 68.9999 31.6329 69.2914C31.2659 69.8867 30.5231 70.3757 29.8586 70.5775C29.6441 70.6223 29.4309 70.6282 29.2127 70.6353C29.1706 70.6368 29.1285 70.6383 29.085 70.6398C28.9397 70.6448 28.7944 70.6494 28.649 70.654C28.6228 70.6548 28.5967 70.6557 28.5697 70.6565C26.8364 70.7116 25.1023 70.7378 23.3684 70.7671C23.0734 70.7721 22.7784 70.7771 22.4835 70.7822C22.4285 70.7831 22.4285 70.7831 22.3723 70.7841C22.3165 70.785 22.3165 70.785 22.2595 70.786C21.3352 70.8019 20.4109 70.8175 19.4866 70.833C19.2035 70.8377 18.9204 70.8425 18.6372 70.8473C18.2875 70.8532 17.9377 70.8591 17.588 70.8648C17.4072 70.8678 17.2265 70.8708 17.0457 70.8739C16.9772 70.8751 16.9088 70.8762 16.8403 70.8774C16.8071 70.8779 16.7738 70.8785 16.7396 70.8791C16.4874 70.8833 16.2351 70.8865 15.9829 70.8895C15.8088 70.8917 15.6348 70.8955 15.4607 70.9008C15.3786 70.9031 15.2965 70.9049 15.2144 70.9066C15.1158 70.9086 15.0173 70.9114 14.9188 70.9154C14.3141 70.9243 13.8932 70.5608 13.4749 70.1633C12.9193 69.6219 12.2706 68.7773 12.2188 67.9807C12.2355 67.7053 12.3294 67.4392 12.4076 67.1763C12.4734 66.9515 12.5345 66.7255 12.5964 66.4997C12.6238 66.4003 12.6512 66.3009 12.6787 66.2015C12.7462 65.9562 12.8134 65.7108 12.8803 65.4654C12.8898 65.4306 12.8993 65.3958 12.9091 65.3599C12.9567 65.185 13.0042 65.01 13.0514 64.8349C13.1539 64.4554 13.2601 64.0774 13.3715 63.7005C13.4576 63.4089 13.5386 63.117 13.611 62.8217C13.7305 62.3348 13.8556 61.8523 14.0224 61.3791C14.0343 61.3455 14.0461 61.3118 14.0583 61.2772C14.2058 60.8605 14.3619 60.4469 14.5179 60.0333C14.5728 59.8876 14.6275 59.7419 14.6822 59.5962C14.8333 59.1936 14.9845 58.7912 15.137 58.3892C15.535 57.339 15.8989 56.2788 16.2569 55.2143C16.3937 54.8083 16.5346 54.4038 16.6768 53.9997C16.9261 53.2906 17.1671 52.5788 17.4073 51.8666C19.5917 45.3907 19.5917 45.3907 20.972 44.6691C21.9486 44.2142 23.0341 44.4899 23.8947 45.064Z" fill="#D4D827"/>
<path d="M28.2627 29.5715C28.4384 29.5902 28.6148 29.5988 28.7913 29.6086C28.8758 29.6135 28.9603 29.6184 29.0448 29.6233C29.1755 29.6308 29.3063 29.6383 29.437 29.6457C29.9399 29.6743 30.4419 29.7077 30.9438 29.7511C31.2985 29.7815 31.6533 29.8027 32.0088 29.8211C32.6524 29.8547 32.6524 29.8547 32.8383 29.8777C33.1271 29.9132 33.4192 29.9217 33.7096 29.9371C34.393 29.9732 34.393 29.9732 34.6608 30.0064C34.8796 30.0286 35.0999 30.0367 35.3195 30.0483C35.7875 30.073 36.2543 30.1023 36.7211 30.1443C37.1449 30.1813 37.5696 30.2031 37.9943 30.2255C38.4673 30.2507 38.4673 30.2507 38.6442 30.2726C38.933 30.3082 39.225 30.3166 39.5154 30.332C40.1976 30.3681 40.1976 30.3681 40.464 30.4011C40.7261 30.4275 40.9903 30.4366 41.2533 30.4505C41.9354 30.4866 41.9354 30.4866 42.2019 30.5196C42.4639 30.546 42.7281 30.5551 42.9911 30.569C43.1133 30.5754 43.2355 30.582 43.3576 30.5887C43.3986 30.5908 43.3986 30.5908 43.4403 30.593C43.5785 30.6005 43.7153 30.6115 43.8527 30.6276C44.0609 30.6517 44.2694 30.6649 44.4785 30.6777C44.5192 30.6803 44.5599 30.6829 44.6018 30.6855C44.7306 30.6937 44.8593 30.7017 44.9881 30.7097C45.0759 30.7152 45.1637 30.7207 45.2515 30.7263C45.4657 30.7397 45.6798 30.7531 45.894 30.7664C45.8594 30.9198 45.8082 31.0676 45.7579 31.2163C45.7431 31.2603 45.7431 31.2603 45.7281 31.3051C45.6953 31.4025 45.6624 31.4999 45.6296 31.5972C45.6065 31.6659 45.5833 31.7345 45.5602 31.8032C45.4984 31.9866 45.4365 32.17 45.3745 32.3534C45.3362 32.4671 45.2978 32.5808 45.2594 32.6945C44.9603 33.5808 44.6604 34.4667 44.3497 35.349C44.3276 35.4115 44.3056 35.474 44.2836 35.5365C44.2731 35.5664 44.2626 35.5963 44.2517 35.627C44.1725 35.8527 44.0953 36.0791 44.0189 36.3057C43.7388 37.1357 43.4434 37.9579 43.1327 38.777C42.9837 39.1705 42.8378 39.5652 42.6919 39.9599C42.6081 40.1864 42.5243 40.4129 42.4405 40.6395C42.423 40.6867 42.4055 40.7339 42.3875 40.7825C42.1644 41.3852 41.941 41.9877 41.7173 42.5901C41.7066 42.6191 41.6958 42.6481 41.6847 42.678C41.346 43.5903 41.0051 44.5018 40.6628 45.4128C40.3918 46.1338 40.1233 46.8557 39.8598 47.5795C39.6692 48.1027 39.4756 48.6247 39.281 49.1464C39.2543 49.2179 39.2277 49.2893 39.201 49.3608C39.1805 49.4159 39.1805 49.4159 39.1595 49.4721C39.0455 49.778 38.9321 50.0841 38.8188 50.3903C38.7882 50.4731 38.7575 50.556 38.7268 50.6388C38.7167 50.6662 38.7065 50.6936 38.6961 50.7219C38.6755 50.7773 38.655 50.8328 38.6345 50.8882C38.5841 51.0244 38.5337 51.1606 38.4833 51.2969C38.3751 51.5898 38.2664 51.8825 38.1568 52.175C38.1311 52.2437 38.1054 52.3124 38.08 52.3812C37.9005 52.8671 37.6673 53.329 37.4371 53.7925C37.3676 53.933 37.2991 54.0741 37.2307 54.2151C37.1861 54.3053 37.1414 54.3954 37.0966 54.4855C37.0766 54.5273 37.0565 54.5692 37.0358 54.6123C36.8817 54.9178 36.7161 55.0978 36.3987 55.2303C36.3568 55.2419 36.315 55.2535 36.2719 55.2654C36.2298 55.2774 36.1877 55.2895 36.1444 55.3019C35.8374 55.3762 35.5422 55.3801 35.2277 55.3814C35.1784 55.3822 35.1292 55.383 35.0784 55.3838C34.6486 55.3856 34.2022 55.3595 33.8453 55.0942C33.6899 54.9354 33.61 54.7384 33.522 54.5372C33.4888 54.465 33.4556 54.3928 33.4224 54.3206C33.3883 54.246 33.3547 54.1712 33.3212 54.0963C33.2402 53.9153 33.1563 53.7357 33.0725 53.556C33.0091 53.4198 32.946 53.2834 32.8829 53.147C32.737 52.832 32.5883 52.5182 32.4395 52.2045C32.3936 52.1078 32.3478 52.011 32.3019 51.9143C32.1264 51.5439 32.1264 51.5439 31.9503 51.1737C31.4852 50.1981 31.0444 49.2123 30.6091 48.223C30.5937 48.188 30.5783 48.153 30.5625 48.1169C30.4293 47.8142 30.2963 47.5113 30.1635 47.2084C29.9517 46.7251 29.7389 46.2422 29.5255 45.7595C29.5099 45.7244 29.4944 45.6892 29.4784 45.653C29.3997 45.475 29.321 45.297 29.2422 45.119C29.1481 44.9062 29.0541 44.6934 28.96 44.4806C28.9368 44.428 28.9368 44.428 28.9131 44.3744C28.8353 44.1982 28.7575 44.022 28.6798 43.8458C28.5359 43.5197 28.3916 43.1937 28.2455 42.8685C27.5185 41.2494 27.5185 41.2494 27.2722 40.3974C27.1144 39.8535 26.9394 39.3149 26.7667 38.7756C26.7189 38.6261 26.6711 38.4765 26.6233 38.3269C26.6136 38.2966 26.6039 38.2662 26.5939 38.235C26.5742 38.1732 26.5544 38.1114 26.5347 38.0496C26.5047 37.9557 26.4747 37.8619 26.4447 37.7681C26.3172 37.3693 26.1902 36.9703 26.0636 36.5712C26.0356 36.4832 26.0076 36.3951 25.9797 36.307C25.83 35.8357 25.83 35.8357 25.7669 35.6364C25.5809 35.0491 25.3924 34.4628 25.1955 33.8791C25.1011 33.5985 25.0148 33.3168 24.9332 33.0323C24.8718 32.8212 24.804 32.6122 24.7366 32.403C24.6158 32.0278 24.4962 31.6522 24.3782 31.2761C24.3605 31.2197 24.3428 31.1634 24.3251 31.1071C24.3001 31.0279 24.2753 30.9487 24.2505 30.8695C24.229 30.8011 24.229 30.8011 24.2071 30.7312C24.1761 30.6247 24.1514 30.5201 24.1318 30.411C24.6968 30.1385 25.271 29.9218 25.8703 29.7367C25.9668 29.7067 26.0624 29.6751 26.1582 29.6427C26.8037 29.4521 27.5986 29.493 28.2627 29.5715Z" fill="#D4D827"/>
<path d="M22.0037 30.5312C22.0558 30.5819 22.107 30.6337 22.1568 30.6867C22.1891 30.7189 22.1891 30.7189 22.222 30.7517C22.436 31.0142 22.3823 31.3961 22.3542 31.7136C22.3295 31.9033 22.288 32.0825 22.2358 32.2665C22.2222 32.3166 22.2086 32.3668 22.1946 32.4184C21.92 33.3603 21.3987 34.2293 20.8916 35.0609C20.676 35.4164 20.4674 35.7761 20.261 36.1369C20.2449 36.165 20.2288 36.1931 20.2122 36.222C19.9644 36.6595 19.7619 37.1183 19.5559 37.5763C19.3592 38.0131 19.1561 38.4467 18.9502 38.8793C18.6954 39.4151 18.444 39.9522 18.1964 40.4912C18.0509 40.8075 17.9043 41.1232 17.7579 41.4391C17.7417 41.4742 17.7254 41.5092 17.7087 41.5454C17.5272 41.9371 17.3454 42.3286 17.1624 42.7195C17.107 42.8381 17.0518 42.9569 16.9967 43.0756C16.9023 43.279 16.8066 43.4815 16.7084 43.683C16.2254 44.6759 15.8596 45.6989 15.5037 46.7432C15.4001 47.0467 15.2946 47.3496 15.1887 47.6524C15.1797 47.6782 15.1706 47.704 15.1613 47.7306C15.1063 47.888 15.0512 48.0453 14.9961 48.2027C14.9229 48.4119 14.8497 48.6212 14.7766 48.8305C14.7584 48.8824 14.7402 48.9344 14.7221 48.9863C14.6066 49.3166 14.492 49.6471 14.3783 49.978C14.3121 50.1702 14.2455 50.3624 14.1788 50.5545C14.1481 50.6432 14.1177 50.7319 14.0874 50.8207C13.7465 51.8208 13.3289 52.7456 12.6383 53.554C12.6093 53.5888 12.5802 53.6236 12.5503 53.6594C11.9501 54.3525 11.0718 54.934 10.15 55.0548C9.09793 55.1212 9.09793 55.1212 8.7282 54.9363C8.70061 54.867 8.70061 54.867 8.67559 54.776C8.66617 54.7424 8.65675 54.7088 8.64705 54.6742C8.63717 54.6377 8.62729 54.6012 8.61711 54.5636C8.60665 54.526 8.59618 54.4883 8.5854 54.4496C8.55371 54.3354 8.52243 54.2212 8.49122 54.1069C8.46692 54.0188 8.44254 53.9307 8.41813 53.8426C8.40253 53.7863 8.38697 53.7299 8.37146 53.6736C8.30147 53.4206 8.22724 53.1689 8.15304 52.9172C8.06086 52.604 7.97655 52.2909 7.89986 51.9736C7.84475 51.7532 7.7761 51.5367 7.70963 51.3195C7.63298 51.0671 7.56832 50.8138 7.50629 50.5574C7.45931 50.3695 7.40252 50.1847 7.34584 49.9995C7.25819 49.7131 7.18177 49.4267 7.11134 49.1356C7.06436 48.9477 7.00756 48.7629 6.95088 48.5777C6.86323 48.2913 6.78682 48.0049 6.71638 47.7138C6.6694 47.5259 6.6126 47.3411 6.55593 47.1559C6.46827 46.8695 6.39186 46.5831 6.32142 46.292C6.27444 46.1041 6.21764 45.9193 6.16097 45.7341C6.07331 45.4477 5.9969 45.1613 5.92646 44.8702C5.87091 44.648 5.80198 44.4298 5.73493 44.2108C5.67257 44.0056 5.61652 43.8 5.56606 43.5915C5.40571 42.9342 5.16902 42.3032 4.9366 41.6686C4.90165 41.5729 4.86671 41.4772 4.83178 41.3814C4.49746 40.4658 4.16019 39.5513 3.82273 38.6369C3.65133 38.1723 3.48053 37.7076 3.30987 37.2428C3.29554 37.2038 3.28121 37.1648 3.26644 37.1245C3.20891 36.9679 3.15138 36.8112 3.09386 36.6545C2.98619 36.3613 2.87843 36.0681 2.77065 35.7749C2.72298 35.6452 2.67531 35.5155 2.62764 35.3858C2.5977 35.3043 2.56776 35.2229 2.53781 35.1414C2.44202 34.8809 2.34635 34.6203 2.25088 34.3597C2.23645 34.3203 2.22202 34.2809 2.20715 34.2403C2.16375 34.1217 2.12044 34.0031 2.07716 33.8845C2.05746 33.8307 2.05746 33.8307 2.03736 33.7758C1.76527 33.0289 1.70357 32.293 2.04415 31.5562C2.36701 30.9035 2.85675 30.359 3.55911 30.1128C3.74512 30.0522 3.92261 30.0273 4.11708 30.0125C4.17226 30.008 4.17226 30.008 4.22855 30.0033C4.81033 29.9578 5.39377 29.9337 5.97662 29.9064C6.15707 29.8979 6.33751 29.8892 6.51796 29.8804C6.82822 29.8655 7.13849 29.8507 7.44877 29.8359C8.18657 29.8009 8.92436 29.7653 9.66214 29.7298C9.83044 29.7217 9.99874 29.7136 10.167 29.7055C11.3387 29.6493 12.5103 29.5916 13.6819 29.5324C13.7933 29.5267 13.9048 29.5211 14.0163 29.5155C14.683 29.4818 15.3496 29.4481 16.0162 29.414C16.274 29.4008 16.5318 29.3877 16.7896 29.3747C16.9371 29.3672 17.0845 29.3597 17.232 29.3521C18.9122 29.265 20.648 29.3933 22.0037 30.5312Z" fill="#D4D827"/>
</svg>
